<svg xmlns="http://www.w3.org/2000/svg" viewBox="0 0 6237.3 3969.3">
   <ellipse cx="3119.5" cy="1991.7" rx="3000" ry="1859.1" fill="#fff"/>
   <path d="M3103 7c-24 3-50 1-74 1a7654 7654 0 00-543 42c-236 29-469 82-697 150-249 74-494 173-719 301C628 752 214 1120 64 1621a1324 1324 0 00-49 486c10 104 31 211 67 310 54 149 127 288 221 416 135 184 306 341 491 474 282 204 605 355 937 456 123 38 246 76 372 103 177 38 357 68 538 86 105 10 211 14 317 19 197 9 396 5 592-16 12-2 24 1 36-1 69-7 138-14 207-24l97-18c33-6 69-8 103-14 9-1 17-6 26-7 97-15 194-38 288-63 477-125 943-330 1322-652 298-253 540-592 602-985 44-285-11-582-148-835-89-165-205-311-338-443a2679 2679 0 00-686-479A3941 3941 0 003857 62a5412 5412 0 00-688-54c-22 0-44-4-66-1m-610 473c17-11 31-4 40-25 7-15 8-29 10-44 1-8 0-16 7-20 16-10 32 2 30 20-4 25-18 47-35 65 29 12 8 39 19 60 4 8 14 9 22 8 18-2 35-12 52-19-38-41-21-117 25-145 21-12 39-10 62-8 0 4 7 6 10 9 6 7 9 16 10 24 9 42-24 85-51 112 17 6 28 10 47 10l-6 26c-16 0-31 2-46-1-9-2-22-11-30-9-24 4-44 25-70 24-3 6-10 5-16 6-15 2-37 2-47-11-11-14-4-43-4-59l-36 10c-1 16-5 31-7 47 0 7 0 17-5 22-4 7-29 14-35 7-3-5 0-11 0-16-9 11-25 25-41 23-1 19-32 10-44 10-8 0-16 6-23 9a83 83 0 01-61 6c-5-1-11-6-16-5-14 3-24 20-40 23-3 16-41 8-52 8l-15-15c-7 19-26 33-45 37 0-6-2-20 2-26 3-4 11-6 15-10 9-7 15-18 18-29 6-19 10-40 10-60 1-19-3-42 2-60 4-13 30-33 43-22 8 6 2 28 1 37-5 32-13 72-10 105 1 8 6 14 15 15 5 0 15-4 16 2h1c1-10 9-13 16-19 10-10 18-21 25-33 17-27 39-64 44-96 2-7-7-14-8-21-5-21 9-30 22-43 5 0 10-2 16-1 20 0 21 22 15 36-2 4-9 11-7 16 4 10 21 20 28 29 21 28 17 60 5 90l30 1v-9c33-8 41-45 47-74 9-46 15-93 23-140 3-20 3-44 11-62 6-14 19-19 33-19 7 0 14 2 16 9 2 12-4 26-7 38l-14 70c-6 29-15 58-17 87m680-202c27-4 35 38 8 43-30 5-37-39-8-43m69 1c28-5 37 38 9 43s-37-38-9-43m733 233a441 441 0 0176-59c8-4 18-7 27-8l19 1c18 3 24 19 18 35-10 27-32 52-48 76-5 8-13 19-14 28-1 12 14 15 22 19-2 6-6 19-12 22-5 1-12-1-16-3-14-4-33-11-39-26-11-27 21-63 36-82 5-7 22-24 18-32-7-13-33 7-39 11-22 16-41 37-58 58-9 11-16 26-27 35-15 11-49 9-35-15-16 7-29 8-46 8 1-6 6-20 12-23 7-4 16-1 24-5 12-6 21-15 30-25 35-45 61-99 90-147 8-14 14-30 24-43s24-15 40-11c4 2 11 3 13 9 5 12-19 36-25 46-30 44-64 85-90 131M2177 340c16 1 23 18 22 32-2 16-15 28-32 28-15 0-21-17-21-30 1-17 13-30 31-30m1042 71c-35-4-17-63 18-52 17 6 17 28 17 42 0 39-19 83-47 111a74 74 0 01-72 19c-7-3-15-10-22-11s-16 4-22 6c-11 4-22 5-33 5l7-26 36-8c-12-46 7-100 45-129 13-10 27-18 44-20 5-1 12-3 16 2 7 10-19 28-24 35-21 27-46 66-42 102 4 27 32 18 46 4 21-20 33-52 33-80m187 4c-39-10-13-76 24-56 10 6 14 20 13 32-1 24-12 46-23 68-18 35-52 79-95 79-8 0-18-1-24-5-5-2-9-7-14-7s-12 4-17 5c-11 2-22 4-33 4l8-25 36-9c-11-42 14-92 34-128 11-19 37-37 54-12 7 10-5 25-10 34-16 27-34 60-38 92-4 35 34 14 46 1l20-28c8-15 12-30 19-45m313-24c19 7 52 30 49 53s-22 44-32 64c-8 17-10 30 11 35l12 2c0 7-4 20-10 24-4 3-13 0-18 0-16-3-41-7-47-25-12-33 27-67 35-96 3-8-9-27-18-25-8 2-16 29-20 36-17 32-41 70-76 85-9 4-32 13-39 5h-1c-5 5-16 1-22 0-11-1-22-5-32-9-13-7-23-17-37-5l-35 4-22 2 8-24 20-3 28-6c-22-52-6-121 54-140 33-10 75 0 73 41 0 10-3 20-7 30-8 18-21 34-35 48-7 6-19 12-23 20-3 5 3 8 7 10 10 7 21 7 32 10l-1 5c7-10 25-12 36-20 19-15 32-38 44-59 8-13 24-33 26-49 0-5-3-9-4-13-3-11 0-25 7-32 10-12 34-14 41 2 4 10 0 21-4 30m-764 122l-5 27c-12 0-24 1-36-1-54-7-26-69-15-102 2-7 14-29 6-35-10-9-28 17-33 23-17 22-29 47-39 72-5 13-8 30-16 42-5 7-30 21-38 10-3-5 0-11 2-16a73 73 0 01-44 22l5-27c21-2 35-22 43-40 9-23 14-48 18-72 3-15 3-33 11-47 7-11 18-11 29-10 5 0 11-1 13 5 3 13-9 34-12 47-5 14-11 30-13 45 11-17 20-35 32-52 8-11 16-20 26-29 19-16 69-34 67 9 0 28-15 58-23 85-2 10-10 26-4 36 5 9 17 8 26 8m-932 111c11 1 20 5 27 13 3 4 7 13 12 15 11 4 27-6 39-7l-2 27c-6 1-27 3-30 8-3 6 1 20 1 27 0 16-2 33-10 49-12 26-51 56-78 28-11-11-13-28-15-43-3-15-1-31-1-46-11 7-20 16-33 20 0-7-3-19 0-25s13-10 17-16c8-10 12-25 14-38 10-63 2-128 18-191 7-29 19-61 49-73 39-14 58 28 60 60 3 47-12 98-34 139-10 18-26 34-34 53m1492-137c23-6 45-37 52-58 3-9 6-24-4-30-13-8-29 2-37 13a74 74 0 00-11 75m-840 10c22-10 39-43 42-66 1-10 2-25-10-29-14-5-27 8-34 19a75 75 0 002 76m-670 111c9-11 14-27 20-40 15-35 26-75 29-112 1-12 8-51-11-52-18-1-23 32-25 45-10 52-13 107-13 159m2330 63c7-11 27 5 37-4 4-4 4-13 6-18 5-11 10-20 18-29 27-34 72-63 118-58 22 2 42 10 52 31h1c3-6 8-14 15-15 11-2 34 12 31 25-1 9-14 17-21 24-20 20-39 41-55 65-6 7-15 19-13 29 2 9 13 13 21 16l-15 23-39-17-9-10c1-22 7-37 23-54-19 12-34 27-55 35-14 5-26 5-40 6 0-4-8-3-12-5-9-3-22-9-23-20-18 0-36 0-53-7-4 6-13 1-19-1-16-6-26-16-28-34-15 6-29 11-45 11-6 0-14 0-17-4-16 3-42-10-54-20-5-4-9-10-15-13-8-3-23 3-31 3-16 2-32-1-47-2l13-23 20 1 28-2c-5-21-6-38 0-59 10-37 42-68 82-72 12-1 27 0 38 6 30 15 24 52 9 76a164 164 0 01-72 59c10 13 24 20 39 23l-6 16c3-4 5-10 10-12 17-7 39 1 53-16 13-17 21-43 32-62 22-43 47-86 77-123 12-14 56-54 65-15 10 40-41 67-63 90-22 22-37 57-51 84-13 23-38 56-5 72M2830 457l1 1-1-1m-512 36c-3 21-15 42-25 60-4 8-11 16-12 26 8 1 21 17 28 15 39-11 29-78 9-101m1855 98c23-7 48-28 60-50 4-9 11-25-1-32-11-7-26 0-35 7a73 73 0 00-24 75m-199-79l-1 3 1-3m-403 20l-4 13h2l2-13m-980 12l2 1-2-1m0 3l2 1-2-1m975 0l1 1-1-1m-975 2l2 2-2-2m-1 6v4h1l-1-4m1931 8l1 1-1-1M1511 772c8-8 22-10 29-18 4-5 5-15 5-21 2-14-1-27-3-41-1-7-3-15 2-21 15-17 32-3 35 14 3 24-8 49-18 70 7 2 15 3 19 10 11 18 7 59 40 44 9-3 30-15 32-25 1-4-5-12-7-16-4-11-6-23-6-35-1-58 36-156 111-132 0-7-2-17 3-22 7-8 35-13 40 0 3 8-1 22-2 30-2 29-3 59 1 88 1 9 3 24 11 29s18 0 26-1l2 26c-14 7-44 19-58 7-13-11-14-38-14-54h-1c-1 34-16 83-49 97-8 4-16 6-24 6-5-1-11-3-16-1-6 3-11 10-16 14-19 12-40 23-62 27-12 2-24 0-31-11-4-7-6-14-8-21l-6-30c-6 6-11 12-19 16-4 2-11 2-12 7-6 20 15 50 5 69-4 7-24 19-32 13-5-3-3-11-3-15h-2c-2 9-8 18-16 24-7 6-16 8-14 20-14 7-31 7-44 14-18 10-27 27-47 33-9 3-18 5-27 5-4 0-11-2-16 0-13 6-15 32-33 33 1 10-7 13-15 17-15 8-35 19-52 10-23-12-23-55-27-78-3-22-13-35-37-29 11 42 20 92 9 135-4 17-14 40-31 48 4 20-31 38-50 32-16-5-25-32-28-47h-1c1 35 9 80-23 106-6 5-14 9-22 11-5 1-11 0-14 2-14 11-19 28-34 38-3-6-11-18-8-25 3-9 21-17 18-28-2-6-9-12-13-17-6-9-9-20-12-30-12-38-12-88 11-122 14-21 36-37 62-32-2-7-7-15-4-22 3-10 27-22 37-15 7 6 7 25 9 34 6 28 13 56 23 83 4 8 9 23 19 26 16 4 18-11 22-20 3-5 8-10 10-16 15-30 7-68 2-100-2-12-3-28-7-40-3-6-9-7-14-11-7-6-12-15-12-25-1-17 17-37 35-25 8 5 11 15 12 24 18-2 55-8 69 7 16 16 13 53 17 74 2 9 5 24 16 26 9 2 19-7 28-8l2 12h2c-1-6-4-14-2-19 4-14 16-26 21-41 11-37 14-74 18-111 1-12-8-13-13-21-7-11-8-25-3-36 7-15 31-33 44-15 9 12 5 29 0 41 47 16 79 53 69 104 8-1 21-3 26-10l4-9c18-20 25-34 25-62 0-50-9-102-14-152-2-23-10-51-6-73 3-14 13-23 27-26 6-2 15-2 18 6 5 12 3 30 3 44 0 21 4 43 4 65 0 29 3 59 5 88m888-191l2 2-2-2m2115 15c-33 5-64 26-83 52-12 16-23 46 8 44 32-2 62-32 84-52 7-7 21-16 24-25 5-15-24-20-33-19m317 291c5-5 11-14 18-16 6-3 14 2 21 2 12-1 24-7 35-14 22-15 40-35 58-54 8-9 15-20 26-26s42-5 46 12c2 11-17 22-24 28l-60 57c-6 6-18 15-19 25s11 16 18 20c-3 6-11 18-18 19-5 1-13-5-17-7-15-10-28-24-22-42l-2-2c-28 12-56 3-81-12-11-6-24-14-25-28-1-18 17-32 26-45-32 24-108 62-129 3-18 4-35-4-52-8l16-22c8 2 28 11 35 5 5-4 6-15 9-21 6-12 13-22 22-32 29-33 84-54 127-41 15 4 32 12 39 27 19-14 36-36 52-54 13-13 29-36 49-38 13-2 41 11 31 27-12 20-39 37-56 53-40 37-82 74-115 118-7 10-17 23-7 33 3 4 12 8 13 13 1 6-10 15-14 20M2214 624v4h1l-1-4m-464 3c-49-10-67 59-67 97 0 11 1 26 8 36 6 9 16 8 24 2 12-9 18-26 22-39s6-26 8-39c3-19 5-38 5-57m464 7l1 1-1-1m1075 1c14 15 22 35 34 53 3 5 9 16 16 17s13-8 20-9c8 16 19 31 28 47 31 51 64 105 87 161 19 46 36 93 51 140 8 23 13 51 25 72 16 27 42 51 61 76 41 50 80 100 116 153a691 691 0 0182 160c2 7 3 17 8 22 7 7 15 0 21-4l49-36c12-8 30-22 46-23 23-1 43 33 55 49 6 8 14 19 14 30-1 15-12 30-9 46 2 10 11 16 16 24 11 18 21 43 23 64 1 11-4 24-6 35-2 16 0 33-3 49-2 8-8 14-7 23 3 26 13 52 20 77 3 9 10 26 6 35-6 18-39 13-49 29-5 8 0 17-2 26-5 28-14 65-41 81 2-12-7-14-14-4-8 12 1 26-11 37-6 5-12 9-19 12-8 4-16 1-20 11-5 10-5 25-7 36-7 33-11 72-23 104-5 14-20 39-12 55 3 7 12 11 18 16 16 14 34 25 52 36 45 27 94 46 143 65 11 4 21 11 32 15 24 9 51 11 74 24-4 8-17 6-25 7-25 2-50 2-75 2s-50-8-76-12l-165-27c-26-4-53-15-79-10 3 14-6 23-14 34l-45 70c-46 68-96 130-157 186-34 32-76 54-103 92-8 10-12 23-18 34-10 17-23 34-28 54-1 7-3 16-1 23 1 5 5 8 5 13-1 24-10 47-20 68-8-2-10-11-11-18-4-19-1-38-3-56-1-9-4-20-10-27-7-6-14-6-18-15-6-16-6-35-10-52l-18-57c-4-16-9-36-7-52 0-5 3-16-3-18-7-2-24 15-27 21-17 26-35 54-54 80-10 13-14 31-21 46-7 17-18 32-26 48-3 7-2 16-6 23-8 14-21 26-30 40-17 24-31 50-46 75-21 33-52 81-91 93-18-31-34-64-46-97 10 0 14 13 18 21 7 16 11 33 20 48 3 4 7 12 13 13 7 0 16-8 21-12l16-14c6-8 14-14 19-23l-1-1-48 41c2-9 4-11-7-9 7-15 28-16 29-35l-29 15c-2-4-6-9-6-14 1-9 16-22 22-28 20-19 52-30 64-57-9-1-17 7-23 13-18 18-41 30-58 49-3 4-15 14-20 11s17-23 20-25l16-17-12-2c4-9 13-14 21-20 14-12 36-30 44-46l-21 9 1-7c-18-3-26 25-44 27 6-17 33-39 49-45l2 9a590 590 0 0068-88c9-14 20-31 24-47 4-13-11-12-17-5-11 12-16 35-24 49-14 25-33 46-54 65-9 9-28 30-41 25v-2c9-9 20-16 28-26 3-4 8-12 1-14-5-1-10 3-13 6-9 5-18 12-27 14l13-26-26 9 20-31-22 4c2-11 15-14 10-28-5-10-12-7-19-11-10-7-26-35-38-13-4 7-2 16-2 23 0 19-1 52 10 69 5 7 22 1 23 7 1 4-3 9-4 13-2 14 1 32-18 34 0-4 0-10-3-13s-7-2-8-8c-8-35-10-73-12-109-1-12 2-37-6-46-4-5-12-7-17-10-20-15-41-27-61-40-53-34-104-71-137-126-21-37-15-80-19-120-2-12 3-39-8-44-3 11-15 9-25 9-25 0-47-9-71-11-41-2-81-7-120-20-41-14-80-38-119-56l-53-22c-8-4-17-6-20-14 17-5 38-4 56-5 50-5 101-8 152-8 17 0 34-3 51-1 3 1 12 0 11-6-2-7-23-15-29-19-29-16-57-33-84-52-21-15-42-31-61-49l-8-14c-8-8-19-14-28-20-32-22-68-37-100-58-32-22-63-59-81-93-22-44-17-94 11-133 9-13 19-24 31-34 4-2 13-6 12-12 0-7-9-17-13-24l-23-52c-13-35-28-74-29-112-1-31 9-69 18-98 12-40 38-80 71-105 18-13 38-19 58-29 24-13 47-29 69-46 62-46 120-99 183-146 14-11 30-22 46-31 11-7 25-11 35-19 12-9 21-23 32-34a578 578 0 01197-126c15-6 30-10 46-15 6-2 15-4 20-8 11 0 21-5 32-8l61-10c34-5 69-1 103-4 17-2 48 9 62-4s2-51 2-69c1-5 0-15 5-19 4-4 8 3 11 6 7 6 17 14 26 10 20-10 13-32 26-46s30 10 45-4c9-9 5-24 4-35-2-35-21-67-23-101 8 2 12 12 16 19 10 14 20 28 28 44 4 7 7 18 15 22 17 8 15-18 13-26-6-23-16-44-24-66-4-9-11-21-10-30m-1287 16c0 26-2 52 2 78 1 9 1 22 10 26 10 6 17-7 19-15 6-22 2-44 2-65-17-4-22-13-33-24m2213 2l-2 7h1l1-7m118 18l-2 2 2-2m-3 4l1 1-1-1m175 2l1 2-1-2m-178 2l-2 4 2-4m752 3c40-6 38 48 3 53-40 5-38-48-3-53m-756 2l2 1-2-1m536 52c-10-14-30-14-45-11-32 6-73 29-87 60-5 13 2 26 16 26 14 1 29-7 40-14a488 488 0 0076-61m-1571 19c-5 2-3 10-2 14 3 14 8 28 13 42 17 50 37 100 46 153 1 9 8 44 25 34 5-3 3-9 2-14l-8-35c-13-50-33-98-50-148-4-12-7-28-14-40-2-4-7-10-12-6m70 81c10 8 14 24 19 36 13 32 20 66 31 99 4 11 8 41 22 44 0-32-15-65-24-95-9-34-14-68-31-99-9-15-13-31-21-46-5-10-13-14-21-6-19 19-10 35-3 58 14 39 32 76 42 117 3 12 5 25 10 36 1 3 5 10 10 6 4-6-7-30-8-37-4-22-7-45-15-66-4-14-14-32-11-47m21-60l2 1-2-1m-4 5l2 2-2-2m0 3l2 1-2-1m10 1l1 2-1-2m-8 2l1 1-1-1m2 3h1-1m1433 13h1-1m-3187 6v8h1l-1-8m1660 12c-9 1-24 7-27 16-2 10 7 27 11 36 11 29 15 61 28 88 6 13 18 25 33 21 13-3 1-28-1-37l-26-97c-2-9-5-29-18-27m-1659 2v5h1l-1-5m1619 66c5 20 11 42 20 60 3 6 8 16 17 12 9-5 1-20-1-28l-30-81c-2-8-4-28-16-27-11 0-7 27-11 35-7 13-35 15-38 28-2 11 1 46 9 54 4 4 13 5 19 7 9 3 22 7 30-1 13-15-15-46 1-59m-1900-53l-12 91c7 1 26 10 31 7 10-4 15-20 15-30 1-23-12-57-34-68m3749 165l21 19v3l-4 1v1c13 2 23 7 36 4 24-5 45-24 63-38l93-75c18-14 39-39 62-44 14-4 49 13 34 30-16 19-43 33-62 46l-64 47c-10 7-19 16-30 21v3c11 2 20 12 30 13 6 1 13-3 18-6 12-5 22-15 31-24 6-5 14-13 23-11 22 3 20 25 6 36-18 16-44 22-68 22 5 13 5 22-4 32-7 8-23 19-22 31 1 9 10 15 16 20v1l-16 15 18-10 16 8 28 13c2-18 9-32 20-46 30-39 98-53 136-17 39 37-6 79-44 90-23 7-45 5-68 9 6 16 12 26 24 38v2l-21 14h-1l-34-38-10-26-31-10-44-28-27-24-6-10v-17l36-43c-8 0-16-2-23-6-4-2-8-8-13-6-19 8-33 39-54 41-15 2-42-19-18-29v-1c-19 0-32-2-48-9l2-4-37-31-52-23-17-20-8-13-15-2-31-7c5-6 12-15 19-17 9-3 21 1 31 0 17-2 33-8 49-14 20-7 40-15 59-25 6-3 16-7 20-12 7-8 3-21 14-29 13-11 33-11 47-1 17 11 7 31-8 38-5 3-16 3-18 9-4 10 3 29 2 40-2 32-25 61-56 69m-1913-69l-1-20-1-12c0-4-7-28-12-14-3 8 6 23 7 31v11c1 3 4 3 7 4m-1733-39v1-1m1970 6c-3 14 5 27 9 41l22 83c2 5 11 39 21 28 7-7-4-30-7-38-8-29-12-59-24-88-4-9-10-26-21-26m-1969 2v1-1m-451 4c28-3 35 41 7 43-30 3-36-41-7-43m4112-1c-24 18-54 27-83 36l4 5 3 27c32 7 55-10 68-39 4-7 11-21 8-29m-3660 4l1 1-1-1m-509 39c26-5 37 37 10 43-29 7-40-38-10-43m1513 369c-17 5-35 2-52 5-23 4-43 19-60 34-6 5-28 20-26 28 2 6 14 3 18 4a660 660 0 01245 66c10 6 20 14 31 18 2-7 6-16 6-23 0-6-4-11-2-17 2-8 13-14 8-23-8-12-48-19-39-41 1-5 7-9 12-7 21 6 34 19 55 2 22-18 23-45 38-67 28-44 84-69 134-47 20 9 51 32 57 55 2 8-4 17-2 26 2 7 5 15 10 20 2 3 9 5 10 10 0 4-4 7-7 10-9 7-21 16-32 18 1-12 7-23 9-35 3-22-4-53-20-69-53-58-157-22-163 56-1 19 15 47 28 61 5 6 20 13 26 4 4-6-1-12-4-17-3-9-6-24-1-32 8-16 26 10 34-2 8-13-19-30-11-42 5-6 17-4 23-4 28 0 48 17 56 42 6 19 3 40-16 49-9 5-19 5-28 8-12 4-23 9-36 12-12 3-24 2-36 3-4 1-9 3-7 8 4 9 27 10 35 11l76 11c12 3 24-1 30 13-10 2-17-4-27-5-17-2-34-1-51-4-12-1-23-6-35-7-8 0-33 5-27 17 3 7 12 11 18 14 16 9 32 15 46 26 6 5 17 13 14 23l-65-18c-10-2-19-7-28-1v2c20 23 44 41 68 60 33 28 66 55 97 85 16 15 43 31 53 51 8 16 12 35 17 52 5 12 11 25 10 38 0 10-5 17-8 26-22 64-88 88-142 118-16 8-32 17-46 28-6 5-6 13-14 16s-14-3-22-4c-12-1-25 4-36 9-17 8-33 20-50 28-26 11-56 13-83 8-36-7-75-32-103-55-10-8-19-21-30-28-23-15-54-17-79-31-17-9-24-2-40 1s-36 6-52 4c-6-1-29-1-29-8 0-6 10-6 14-7 17-4 34-6 50-11 12-5 24-12 33-22 4-5 5-14 12-17 5-2 14 0 20-1 12-2 26-9 39-8 25 1 44 11 70 9 0-7 0-13 7-17 6-4 30-4 25-16-4-9-13-10-20-14-10-6-18-16-29-19-9-3-21-1-31-1-63 0-134 5-192 33-15 7-32 10-43 23-28 31-38 78-25 116 5 13 10 36 28 34 22-1 14-33 30-42 4 22-15 39-18 60-3 29 43 78 72 63-8-21-30-50-25-73 21 15 34 43 52 62 38 37 75 76 116 110 14 12 30 21 44 32 20 16 41 33 64 44 10 4 17 9 28 6-6-24-35-41-53-54-14-10-23-24-36-33-14-9-29-15-42-25-7-5-12-14-20-20-9-7-19-13-26-22 12 0 23 9 33 16l47 32c26 18 52 38 78 58 8 7 21 11 27 18 7 8 8 20 15 29 32 44 69 90 122 109 6 2 10 6 15 9 8 4 18 4 25 9 15 8 29 25 43 36 6 5 21 23 27 9l1-11c-1-27-23-20-41-30-7-3-8-11-14-15-7-6-17-8-25-12-14-8-20-23-32-32-20-17-47-25-65-43-17-17-24-42-39-60-8-8-15-19-23-26-14-14-29-23-37-42 14-2 32 19 43 27 24 18 47 33 73 49 15 8 29 19 47 22 22 5 51-2 57-27l-12-10c-15-18 18-41 26-55 4-8 4-15 3-23 0-8-1-18-8-23-9-7-25-5-36-7-27-3-53-9-80-14-79-17-155-43-230-72-26-10-53-18-78-31-3-2-23-12-20-17 5-6 28 7 34 10 32 15 65 28 98 41 30 12 62 17 92 27 47 15 94 32 143 38 24 3 54 13 79 7 14-3 12-19 10-30-1-3-3-11 1-13 3-3 13 2 17 2 16 3 29 4 45 1 10-1 20 0 31-2 18-4 36-10 54-12 13-1 26 3 39 3 8-1 35-15 39-1 3 6-14 7-18 7-21 3-43 8-64 13l-84 16c-16 3-32 4-43 18-6 7-3 15-4 23-3 17-11 30-11 48 43 8 66-37 106-37-5 11-24 18-22 33 3 21 33 45 53 50 6 1 30 4 31-6s-12-18-15-25c38 7 67 28 103 41 10 4 20 4 30 6 27 7 52 15 79 18 26 2 68-7 72-39 1-8-5-13-7-20 8 0 48-5 34-21-5-6-15-7-23-9l-40-8c-32-7-63-17-95-27-22-7-40-10-56-28 26-10 56 11 82 19 56 17 113 27 172 31 25 2 21-24 22-41 1-7 9-17 0-22-11-6-33-2-45-2-30-1-60-6-89-9-17-2-41-1-52-15 18-1 35 8 53 6 10 0 16-5 25-7 6-1 13 2 19 0 5-1 9-5 15-4 19 1 36 12 56 14 11 2 19-5 30-7 12-2 24 2 36-1 22-5 36-25 48-42 3-5 12-20 2-24-5-3-16 1-22 3l-54 11c-67 12-135 8-202-3-20-4-54-2-67-22-5-8 10-14 11-22 0-8-8-13-8-20 1-11 19-15 20-27 1-10-10-13-13-22-1-4 1-10 5-11 7-2 11 9 13 14 4 13-5 39 11 46 23 9 16-32 13-42-1-3-4-11 1-13 9-3 10 19 10 24 0 13 0 28-8 39-10 12-25 12-25 30 22-2 56-4 66-28 5-11-5-24 5-33 6 15 5 37-7 50-5 5-30 14-23 24 4 6 14 3 20 4 32 6 54-3 79-24 15-13 35-28 46-45 9-12 18-29 23-42 3-6 2-13 5-19 6-13 21-23 23-39 1-14-20-9-18-24s18-27 21-42c-4 0-16 2-16-3-1-6 11-17 14-23 10-20 14-41 6-62-4-10-12-23-24-18-30 12-6 40-8 60-2 14-13 25-19 36-5 10-8 30-9 40-1 13 6 22 10 34 6 16 6 36-3 52-3 4-16 14-17 3-1-8 11-13 13-21 6-21-2-60-31-40l-11 8c-14 17 4 36 6 54 5 26-24 61-51 56 6-17 22-10 33-20 11-9 14-38 4-49-6-6-16-7-24-9 6-10 19-14 24-24 10-16 3-41 2-58 7 3 8 13 14 16 5 3 11 1 15-1 22-13 0-34 8-50 6-12 30-9 30-25 0-11-6-25-11-34-2-4-9-12-7-17 1-7 17-7 22-12 12-12 9-29 9-44-1-9-4-19-15-17s-16 14-27 16c2-11 13-18 16-28 9-28-7-75-41-64-3-10-4-25-9-34-3-5-12-4-15-9-3-4 0-10 0-13 2-25 7-49-7-72-7-12-34-21-38-2-4 17-3 41 5 56 6 10 18 16 20 28 5 20-10 35-9 54 0 10 10 21 14 30 6 15 8 31 5 47-1 5-3 13-8 15-4 1-5-4-5-7 3-14 7-25 5-40-1-11-5-23-13-31-4-4-14-8-15-13-1-8 8-13 11-19 5-10 11-40-6-42-5 0-11 4-15 6 0-6 1-12-1-18-1-5-5-10-5-15 1-8 10-11 10-19-1-13-13-23-12-37 1-9 10-8 15-15 8-13-1-35-10-45-22-22-47-25-74-34-17-6-34-14-50-22-13-6-37-18-41-33-2-7 4-13 11-11 13 5 24 25 39 11 16-14 5-32 2-48-25-6-44-3-68 6-9 3-31 14-40 8-6-3-2-9 3-11 11-5 26-6 38-10 23-8 47-15 71-17 16-2 32 0 48-2 13-1 30-4 33-20 3-27-45-30-54-48 5-1 14 0 19-3 8-8 0-30-8-36-11-8-29-4-35-18 21-5 44 7 53 28 4 10 4 21 8 30 4 11 14 17 18 29 3 9 4 29 13 36 15 11 36 0 52-4 5-1 14-1 18-6 4-3 3-9 3-13-4-31-27-31-43-52 15 3 32 23 47 20 8-1 11-12 12-19 1-18-2-37-17-48-7-5-21-13-28-7-4 3-5 20-11 18-7-3-4-21-4-27-2-13-11-24-21-32-9-7-20-11-22-22 21 1 34 22 47 36 12 12 27 13 40 24s17 29 29 40c10 9 22 10 35 10 0-14-2-26-11-37-4-5-18-8-18-15 0-4 5-5 8-4 5 2 10 7 16 8 10 3 21 3 32 8 22 9 40 32 47 55 2 8 1 20 5 27 7 11 24 27 38 23 11-3 11-15 10-25-2-15-4-29-14-41l-14-13c-3-3-1-8 4-9 8-2 13 10 17 15 6 9 12 16 14 27 3 15-1 30 5 44 5 10 15 12 22 20 6 6 18 37 31 24 4-4 4-12 4-17 0-17-5-35-18-46-3-3-23-12-16-18 9-9 22 15 30 18 5 2 14 2 14-5 0-15-28-23-38-30-40-28-81-52-123-76-29-17-61-28-93-38-15-5-32-12-48-13-17-2-40-4-57-3l-26 5c-7 0-13-3-20-2-29 2-60 9-89 14-84 14-168 37-239 85-24 17-52 43-72 65-8 9-14 23-24 30-18 13-42 20-61 32-34 22-64 49-96 74l-37 29c-4 4-12 9-12 15 1 9 23 10 29 17M1285 999v5h1l-1-5m2200 0c-4 0-8-1-9 4s3 13 4 18c3 14 2 37 12 49 3 4 8 1 9-4 1-6-3-15-4-21l-6-18-6-28m-2459 20c-24 0-35 17-41 38-7 31-7 76 15 102 24 28 38-26 38-43 0-13 0-25-2-37-3-21-8-40-10-60m4083 8l1 1-1-1m-7 5l-1 3 1-3m-2175 20l-16-4c6-6 12-2 16 4m339-4l3 48c1 10 6 18 7 28 2 9 0 19 3 28 4 9 13 12 20 19 10 12 16 27 27 38 14 14 38 19 42-6 2-18-7-49-22-59-9-6-29-2-31-15-2-8 9-16 9-25-1-26-28-71-58-56M845 1176c10-8 26-23 41-22 6 1 9 8 12 13 7 12 23 30 22 45 0 7-9 20-18 16-5-3-8-11-11-16-4-5-7-10-9-16-5 3-17 8-18 15-1 6 8 19 11 25 10 19 19 38 25 59 12 40 20 83-1 122-8 14-20 24-29 36-9 2-16 9-24 12-22 7-72-1-57-36 5-11 21 0 30 1 11 0 21-6 28-13 40-38 19-94-1-136-6-13-12-28-21-40-6 12-16 22-23 32-2 4-4 10-9 12-9 3-20-23-19-30 3-14 15-25 23-35 4-4 12-10 11-15-2-9-10-20-14-28-12-22-29-46-36-70-26 10-59 28-72 54-3 6-5 13-3 19 5 10 23 23 2 29-31 9-42-39-34-59 16-39 54-64 90-84 7-4 30-20 38-15 8 4 13 23 18 32 16 30 36 61 48 93m2376-92c-8 3-11 15-15 21-7 13-13 27-7 42 7 16 41 15 55 9 28-13 7-48-7-63-7-7-16-14-26-9m-2095 8l1 1-1-1m1 3l2 1-2-1m2 4l1 1-1-1m4237 70c13 0 26 0 39-2l25-8c17-8 44-34 13-45-32-11-76 23-77 55m-2553-35c6-2 17 5 7 8-7 3-18-5-7-8m656 10c-9 2-11 13-11 21-1 21 14 36 23 54 3 6 4 23 14 20 11-2 10-16 8-24-3-20-2-42-14-59-4-6-12-15-20-12m35 5c-9 5 7 29 9 36 10 34-22 75 8 102 10 9 20 4 24-7 1-5 4-13 10-10 11 6 14 23 20 33 3 5 9 9 15 5 5-4 6-14 7-20 0-19-7-35-12-52-1-7-1-17-6-22-6-9-17-2-23-8s-8-20-13-27c-5-9-26-38-39-30m1751-1l1 1-1-1m-1865 4c-7 0-13 6-14 13 0 10 5 19 4 30-1 24-16 40 9 58 4 4 9 6 14 5 13 0 18-12 20-23 3-22-3-43-11-63-4-9-11-21-22-20m-280 76c6-2 15-2 19-7 9-12-6-41-17-48-8-5-18-4-27-4-20 0-37-3-55 4 3 20 28 22 39 38 11 17 1 42 14 58 5 6 15 10 22 15 12 10 23 22 37 31 15 9 35 15 49 26 9 8 12 19 20 27 5 4 14 3 18 8 3 5-1 13 1 19 10 22 23 45 36 66 19 33 48 64 60 100 4 12 0 27 2 40 8 38 20 74 16 114l-6 48c-1 5-4 14 1 19 11 11 39-14 48-21 29-20 58-44 75-76 7-13 12-34 4-48-6-10-17 2-20 8-8 16-9 35-17 51-2 4-9 16-15 11-3-3-1-9 0-12 4-12 7-23 12-34 13-33 34-65 60-90 10-10 39-24 40-39 1-43-63-55-73-93l-22-82c-2-7-8-23-18-20-18 7-4 39-1 51 4 17-2 35-1 53 2 13 10 24 13 36 2 10 0 28-3 38-4 12-13 19-24 24-10 4-22 6-24 18-4 18 10 28 16 43 3 8 4 17-4 21-5-20-12-30-34-20 6-19 21-27 12-49-2-7-7-12-13-16-3-2-10-4-10-8 0-5 6-8 9-11 6-7 10-16 8-25-2-11-8-25-15-33-3-4-11-7-13-11-2-5 2-13 4-17 2-10 4-21 3-31 0-7-6-16-5-23 2-9 20-6 24-18 6-23 0-54-28-56-1-13 4-22 5-34 0-11-6-24-13-33-6-8-18-16-28-11-10 6-7 23-18 31-3-12 3-21 3-32 1-17-16-40-30-48-10-5-40-16-46 0-3 7 2 17 2 24 0 13-3 26-1 39 1 14 8 28 9 42 1 6 3 19 0 24-2 6-10 4-13 0-4-6 1-14 2-20 1-9-1-18-5-26-6-12-21-19-24-31 6 0 15 1 21-4 9-8 0-44-8-52-8-7-26-7-36-5-7 1-12 6-13 13-1 11 8 20 9 31 1 9-4 17-4 26s4 16 7 24c1 2 1 20-5 15-2-2-1-9-1-12-2-7-6-14-12-19l-18-17m167-44c-8 4 3 19 10 16s-3-20-10-16m-238 21c-30 12-6 68 24 55 8-3 5-11 4-17-2-13-7-46-28-38m412 4c-20 6-18 31-26 47-4 8-12 13-9 24 4 16 19 29 25 44 8 20 22 50 49 40 25-8 25-36 23-57-1-10-3-24-15-25s-20 24-24 33c-2 3-6 10-11 5-3-3 0-22 2-26 4-8 13-7 16-17 5-17-1-40-9-56-4-8-11-15-21-12m2070 68v2l61-6c23-1 55 3 73 19 11 10 18 26 7 39-7 8-18 12-28 16-20 8-41 14-61 21-11 4-30 9-34 21-2 8 8 16 10 24l-26 10c-7-11-15-21-21-32-18-40 27-53 56-63l41-13c4-2 12-4 11-10-2-13-29-13-39-13-29 0-57 6-85 13-12 3-23 8-35 10-11 1-38-9-34-24 2-5 9-7 13-10-15 0-35-8-41-22 6-3 15-10 22-9 6 0 12 7 18 9 9 4 20 4 30 3 30-6 57-20 84-33 14-7 32-19 48-15 9 1 29 23 20 31-7 6-21 8-29 11-20 7-41 18-61 21m-2684-36c-14 0-24-8-36-11-16-4-32-3-47-2-4 0-23 2-23-4 0-8 22-9 27-9 13-1 24 5 36 9 16 4 32 2 43 17m-162 4c-14-3 3-17 0 0m250 18c-10-5-27-15-30-26 14 2 26 12 30 26m424 6c-15 8 2 36 15 29 14-7-2-35-15-29m-718 16c23 4 12 43-12 40-24-4-4-42 12-40m626 7l4 4-4-4m294 5c-28 6-22 41-36 58-6 6-22 15-21 25 1 7 8 10 12 15 6 6 10 13 13 21 6 14 6 28 7 43 0 4 2 11 8 9 11-2 14-21 15-31 1-14-7-26-6-38 0-8 11-12 13-20 3-12-6-21-5-32 0-8 16 0 17-11 2-10-3-42-17-39m-425 263h-1c-4-10-4-20-11-28-7-10-22-17-26-29-2-10 5-16 6-24 1-15-6-37-16-48-4-5-11-6-16-11-8-9-5-20-19-25-5-2-23-4-22-12 1-7 13-3 17-1 12 5 32 21 43 5 9-15-1-51-13-63-7-7-22-12-23-23 22 3 27 22 38 39 3 5 10 9 12 15 1 5-5 9-6 14l-1 19c-3 8-10 17-8 27 1 11 11 23 15 34 7 22 8 45 17 66 6 14 21 28 14 45m151-243l1 6-1-6m109 3c-20 5-19 33-25 48-4 11-13 18-16 29-4 13-3 34 1 47s13 25 16 39c1 6 2 13 0 20-1 5-6 10-5 15 2 11 29 11 37 9 24-7 25-46 15-64-3-7-11-10-13-18-3-14 9-25 9-38-1-16-14-24-16-38-1-10 6-18 9-26 2-8-1-26-12-23m103 444c4-14 18-19 19-35 1-11 0-21-2-32-2-5-5-13-3-18 3-9 14-6 20-8 11-4 13-17 12-27-3-22-25-12-37-3-13 10-12 20-19 34-5 12-14 24-17 37-2 7 2 15 4 23 3 14 6 31 6 46 1 28-1 58-3 86-1 11 1 23-3 34-2 9-9 18-13 27-9 17-17 36-27 52-25 35-55 72-86 102-15 14-34 25-48 40-10 11 4 25-5 35-5 6-13 5-20 8-9 3-17 8-25 15-25 20-44 49-67 72-13 13-26 12-40 20-9 6-16 15-24 22-7 7-16 11-24 18-7 6-21 12-24 23-2 7 8 14 14 16 10 6 22 4 33 8 12 5 21 13 35 13 18 0 17-16 2-23-17-9-31-5-44-21l42-18h17l18-5 15 11h26l25 5 25-8 38-5c-9 17-25 22-21 45 1 8 8 22 19 16 8-5-1-12 3-18s15-6 21-12c5-5 4-13 8-19 5-9 15-9 24-12-4 11-20 15-17 29 4 21 32-5 39-7 8-2 14 7 22 1 10-8-8-20-2-28 4-6 14-6 19-11 7-5 8-14 15-19 8-6 19-5 27-10 5-3 9-10 15-11 6-2 10 5 16 6s11-6 17-7l-12 25c-18 7-46 2-60 16-15 17-15 57 17 49 17-5 3-18 7-28 4-7 31-20 39-22 16-4 2 34 24 23l6-5c10-13-4-24-3-36 0-10 13-16 15-26 1-10-2-19-2-28 1-9 6-14 6-23 0-10-4-21-1-31 4-11 13-18 18-28 2-5 0-12 4-16s10-3 15-6c4-4 13-22 14-28 1-4 0-8-3-10-6-4-14-3-17-9-4-6 0-20-8-23-12-6-36 4-47 9-16 6-31 19-47 24-14 4-29 2-44 8-9 3-15 13-24 15-17 4-11-21-5-27 11-11 26-1 39-1s32-7 45-11c28-10 44-34 73-40 81-19 157 14 235 27 30 5 60 13 91 11 15-1 30-4 30-23 0-8-8-14-16-16-17-5-38-4-56-6-25-3-51-7-77-8-44-2-89 0-132-5-14-1-21-14-33-15-21-3-40 3-59 8-5 1-17 3-20-2-4-6 3-12 7-15l22-23c3-3 8-4 11-8 7-8 2-21 6-31 7-15 11-31 17-45 5-11 14-21 18-31 2-4 0-9 1-13 2-12 9-18 3-30-11-20-54-9-58 12-1 5 1 19 8 20 6 1 10-12 16-5 15 15-10 33-17 43-3 4-5 10-6 16-1 9 4 25-2 32-3 5-27 14-31 8-2-2 4-7 5-9 6-7 11-20 12-29 2-10-10-12-10-20-1-9 12-15 14-24 2-12-9-24-7-34 1-7 9-9 14-13 7-6 12-16 9-26-10 3-35 24-45 14-4-4 3-9 6-11 13-9 23-12 25-28 1-6-5-29 1-31 4-1 9 5 12 7 6 5 15 1 19-6 11-21-3-45 3-65 10 7 10 24 20 28 8 3 13-5 16-11 9-15 10-27 10-44 10 10 1 25 7 36 9 17 22-5 20-16-2-8-4-19-10-25-12-10-28-9-28-29 0-18 22-18 26-31 2-8-8-20-4-26 6-9 19 2 23-13 4-14-1-30-8-42-3-6-12-16-11-22 1-8 13-2 17-5 9-8-5-34-13-38-4-3-9-1-11 3-5 10-4 21-6 31-3 8-8 14-11 23-4 12-5 25-9 37-3 8-8 14-10 23-3 12-3 25-6 37l-8 20c-3 14 8 30 0 43-5 8-29 11-25-3 2-8 17 3 21-5 5-9-13-15-14-23s13-18 16-25c7-18-1-38 7-55 9-18 22-30 20-52 0-14-10-25-10-39 6 1 14 5 20 1 10-6 1-22-7-26 3-9 3-16-2-24-3-5-10-10-10-16 0-10 17-10 13-23s-23-12-30-1c-5 10-3 24-5 35-5 19-5 38-7 58-1 8-5 16-5 24-1 19 6 37 2 56-3 13-8 25-18 34-9 10-21 14-22 29-1 29 24 55 15 85-4 14-16 24-21 38-3 6-1 14-1 21-1 13-6 27-14 37-5 6-9 12-17 11m-328-423c-7 5 1 13 4 18 11 14 27 28 33 45 8 27 3 58 17 83 9 14 24 19 35 32 10 11 12 27 18 41 6 12 14 21 16 35 3 16 1 35 13 49 4 4 13 11 19 6 3-2 4-11 4-15 2-17-5-37-10-52-21-67-58-129-93-188-10-17-19-37-34-49-5-4-16-9-22-5m-487 28c-12 3-33 26-27 40 4 10 27 11 36 8 19-5 16-21 8-34-3-6-9-16-17-14m391 211c-9-8-7-22-12-32-4-7-9-15-15-19s-15-4-17-12c-2-9 12-13 12-22 0-8-4-17-7-24-9-29-23-50-48-67 5-5 11-1 16 3 11 7 20 18 28 29 10 14 19 32 19 49 1 10-3 17 0 27 10 26 32 37 24 68m-406-40c-29-22-49-54-80-74-27-17-57-27-86-37-83-27-181-45-264-12-32 12-52 53-61 83-11 34-26 72-29 108-2 26 4 50 12 75 6 19 12 52 30 65 6 5 15 4 15-5 1-12-5-26-8-36-6-24-16-46-20-70-9-54 4-123 51-156 35-24 79-28 120-28 25 0 53-4 78-1a415 415 0 01216 117c8 9 16 15 22 26 4 7 9 17 10 25 0 11-4 18 1 29 3 6 5 17 13 17 14 0 2-18 10-20 9-4 12 16 25 7 9-6 12-23 11-33-1-14-11-24-18-35-8-11-13-24-22-34-5-8-19-25-26-11m838-127c-10 6-11 32-8 42 2 6 10 9 15 6 12-6 11-28 7-38-1-6-7-14-14-10m193 37c-12 5 5 38 18 32 12-6-5-37-18-32m-2821 1l1 1-1-1m1768 9c-14 4-4 32 1 40 2 3 7 10 12 9 5-2 6-10 7-14 0-10-3-41-20-35m905 18c-6 1-17 4-19 10-4 11 13 34 24 32 6 0 8-8 9-12 2-12 5-34-14-30m383 9c-38 5-66 32-94 55-32 26-62 55-90 85-16 16-18 30-5 48 5 6 11 12 19 11 14 0 30-15 42-22 33-19 67-46 104-61 8-3 15 1 24-1 15-4 40-20 50-33 13-19-8-50-19-65-4-5-8-13-13-16s-13-2-18-1m-715 48l-3 10h-2c-1-5 0-8 5-10m455 9c-4 3-5 9-4 13 3 13 8 31 13 43 2 4 7 7 12 5 17-9 5-42-3-53-3-5-11-12-18-8m-990 20v4h-1l1-4m51 1c-4 3-2 8 0 11 6 11 12 21 14 33 4 23-3 40-7 62-3 18 2 32-9 50-17 26-42 48-63 70-38 38-77 90-132 103-25 6-55-3-79-8-34-7-68-18-101-23-12-2-31-1-33 14-2 13 13 21 22 26 8 5 17 13 27 14 9 1 18-5 28-3 6 0 9 7 16 8 5 1 11-1 15 3 5 3 4 10 9 13s13 4 20 6c12 5 24 12 38 15 7 2 15 0 22 2 16 5 28 19 45 23 11 2 23-3 35-3 37 0 79-1 116-13 31-10 56-33 85-48 34-17 77-31 107-57 28-24 28-51 21-86-3-15-3-36-11-49-8-14-22-26-33-37-23-24-47-45-72-66l-57-49c-5-4-15-16-23-11m776 7c-15 10-25 71 8 52 11-7 12-31 10-43-2-7-11-13-18-9m-820 1v3h-3v-3h3m949 5c-10 4-3 20 7 16 9-4 2-19-7-16m-565 10l-5 35 13 32h-1c-7-10-28-26-28-38 0-9 15-23 21-29m656 10c-7 4-1 20 6 17 9-3 4-21-6-17m-59 20c-8 4 1 23 0 30-1 12-11 20-9 32 3 17 23 21 32 33 5 7 2 18 8 24 4 4 10 3 15 1a64 64 0 0026-25c12-23-10-39-29-47-6-3-17-5-20-10-4-5 16-10 12-20-4-11-23-23-35-18m318 2c-20 1-44 17-62 26l-129 68c-13 6-19 17-30 25-3 2-8 2-11 5-3 1-10 9-4 11 5 2 13-3 17-5 13-6 26-14 40-19 41-18 80-41 121-60l44-22c7-4 17-4 23-10 8-8 2-20-9-19m-960 85c0-7 4-13 5-20 2-12-5-28-11-37-6-10-20-14-24-24 24-4 37 37 40 55 1 10 2 23-10 26m136-56c-9-2-12-9-12-17 8 1 10 9 12 17m610 118c19 10 36-4 54-10l113-46 28-14c14-4 57-10 55-30-4-41-42-15-63-5-46 23-92 45-136 72-17 10-39 16-51 33m-989-112c9 7 16 20 22 30 1 3 4 11 0 13-5 3-9-4-11-7-4-9-11-27-11-36m838 34c-10 5-5 40 7 33 10-6 4-39-7-33m29 20c-9 6-11 26-18 35-5 6-13 10-16 17-2 7 7 9 12 7 12-7 29-29 34-41 3-8 1-27-12-18m365 3c-22 0-47 15-68 21-50 16-101 28-149 48-11 5-29 10-37 18l-7 13c-2 3-13 11-9 16s16 0 21-2l57-15a11077 11077 0 00171-48c4-1 11-1 14-5 8-9 7-35 7-46m-417 10c-17 0-23 22-22 35 0 7 1 16 10 16 17 1 18-21 20-33 1-7 2-18-8-18m-244 87c26-4 55-26 72-45 6-7 13-12 14-21-11 0-18 9-26 15l-43 31c-7 5-19 10-17 20m329-63c-17 1-36 19-43 34-3 5-7 13-3 18 6 7 25 6 33 6 16-1 30-14 45-22 4-2 12-8 10-14-3-6-17-5-22-9-6-4-11-14-20-13m-572 24c7-3 7 9 2 11-6 3-7-9-2-11m307 14c-16 3-34 24-47 32-8 5-19 12-28 14-10 2-18-1-27 7-18 14-25 39-35 59-6 12-14 22-22 32-15 18-34 33-49 51-4 3-15 17-3 18 8 0 16-7 25-8 15 0 30 5 46 4 9 0 14-7 22-10 10-2 21 1 31-2 8-3 7-14 16-15 27-5 68 10 87-18 10-15 5-32 4-48-2-13 0-26 1-39 2-12 7-29 4-41-3-9-12-39-25-36m350 71l24 2v3c-10 4-21 4-30 7-10 4-19 13-28 18-8 4-18 14-12 24 3 5 10 4 16 4h144c27 1 52 3 80 0 18-3 63-3 69-26 3-11-5-29-8-39-3-13-7-39-17-49-5-5-13-1-19-3s-10-7-17-8c-12-1-26 4-38 7-26 6-52 14-78 19-17 4-35 4-50 13-7 4-11 10-17 15-7 5-16 4-19 13m-628-64c14 22 24 42 10 68-4 7-7 14-16 16 6-16 18-25 17-43-1-13-15-30-11-41m-774 29c-18 5-8-14 0 0m176 29l-30-8c-6-1-12-2-18-1-10 1-37 9-25 22 14 18 46 12 61 0 5-5 10-6 12-13m1206 134c18 9 40 6 59 6 13 1 23 3 36 2 19-2 42 6 63 6 16 0 40 7 56 0 15-6 12-35-1-44-11-7-38-4-51-4-39 0-76-4-114 0-11 1-29 0-38 7-5 3-7 20-10 27m-115 70v1-1m-63 18c-1 14-2 37-11 49-6 8-16 13-22 21-7 10-10 20-18 30-6 8-10 24-20 28 1-10 1-30 6-38 6-9 21-10 25-21 5-16-28-16-14-30l7-6 9-7c1 9 8 21 16 9 9-12 3-31 22-35m126 40h2l6-14c-10-1-13 5-8 14m-89 9c-4 12-14 20-22 29l-10 15c-2 5-4 32 9 25 4-3 8-9 11-13 9-10 21-19 24-32 3-10 0-24-12-24m-116 12c1 5-1 25-11 19-9-5 7-17 11-19m172 12c-7 1-6 11 1 10 6-2 6-12-1-10m-267 33c0-5 10-26 18-18 8 9-12 18-18 18m238-16c-15 3-13 26 2 22 12-2 13-26-2-22m-315 0c-2 12-12 2 0 0m216 36c-1 2-1 4-3 5-12 16-14-9 3-5m-759 3c-22 6-38 43-14 55 24 13 47 1 72 0 12-1 25 6 38 0 14-7 6-38-5-44-22-10-39 17-59 14-8-2 1-11-1-16-4-8-23-12-31-9m615 20c0 5-6 19-13 12-6-6 9-12 13-12m177 5l2 2-2-2m3 2l1 1-1-1m-672 12c-17 6-18 34 4 26 18-6 16-32-4-26m85 29c7 0 34-8 24-19-9-12-24 11-24 19m344-21c0 13-19 23-28 10l28-10m-269 15c-9 3-3 15 5 13 9-3 4-15-5-13m501 1c-7 4-3 15 5 10 7-4 3-15-5-10m-469 3c-9 3-20 17-11 25 6 5 17 3 24 1 23-6 6-32-13-26m-153 3c-16 10-3 46 2 59 2 5 10 14 17 10 4-2 4-9 4-13 2-14-3-31-9-44-2-5-6-16-14-12m-44 6c-7 1-15 3-19 9-8 12 7 20 17 18 8-1 18-5 21-13 4-11-12-15-19-14m134 4c-12 2-13 23 0 20 10-2 12-22 0-20m684 0l2 1-2-1m-2 2l1 2-1-2m9 0l1 2-1-2m-4 3l1 1-1-1m248 92c-13-14-34-23-49-33l-51-34c-10-7-19-15-31-17s-25 3-37 6c-14 3-18-2-31-5-3-1-7-1-8 3-1 5 5 9 8 11 11 8 24 14 36 19 38 15 77 29 116 40 13 4 34 13 47 10m-904-33c-1-6-10-14-7-19 5-8 25-1 23-16-2-14-15-14-25-11-13 3-26 8-32 19-11 17 1 33 20 32l21-5m-76-26l7 1c18-2-3-21-7-7v6m801 22c-6-6-14-8-21-11-16-8-36-21-53-21-6-1-28 2-28 10 0 5 21 2 25 3 26 6 49 22 77 19m-773-27v1h4v-1h-4m-635 10c-4 0-20 3-20 7 0 7 17 11 22 13 19 10 48 37 70 34 7-1 41-13 25-24-7-5-17 2-25-3-7-4-8-13-17-15-13-3-27 6-40 3-8-2-6-15-15-15m782 11c9 0 19 0 28 3l16 4c3 0 30 3 23-6-4-5-13-4-18-5-13-4-46-18-49 4m109-8c-18 5-15 26 4 20 16-4 13-25-4-20m-425 22v1h4l-4-1m5 1l1 1-1-1m0 9c-9 2-25 24-14 32 7 5 22 4 30 5 23 4 46 6 69 13 40 12 76 32 112 52 16 9 35 23 54 27 22 5 54 0 74-9 12-5 22-12 31-21 3-4 8-9 5-14-4-7-17-8-24-9-22-5-46-6-68-12-33-10-59-36-92-46-13-4-28-1-42-2-20 0-40-2-59-6-23-4-53-17-76-10m1124 44c-14-8-29-9-44-13-39-10-79-12-117-22-12-3-25-8-38-7-4 1-13 2-11 9 4 13 33 18 45 21 39 11 80 13 118 24 15 4 39 5 47-12m-701-40c-16 5-17 31 3 25 16-6 16-31-3-25m109 0c-10 6 5 13 12 9 12-7-5-13-12-9m-271 8c-11 4 1 17 9 14 12-4 0-17-9-14m238 2l-3 4 3-4m2 0l4 4-4-4m-5 5l1 1-1-1m-792 2c-9 2-35 4-32 18 2 12 38 10 47 8 16-5-3-29-15-26m796-1l1 2-1-2m71 15l-10-2c-23 2-14 29 4 11l6-9m36 9c-6 1-7 12 0 10 5-1 6-11 0-10m-554 110c-16-8-34-10-52-12s-38-2-56-6c-9-3-8-13 0-17 11-4 29 2 40 3 36 2 70 6 106 9 13 1 39 9 46-7-21-12-45-15-69-20-13-3-27-4-33-17 11-3 23 2 34 5l70 17c6 2 30 12 36 7 4-4-5-10-7-12-12-6-26-10-39-17-37-19-75-30-116-35-11-1-23-5-34-4-18 3-12 29-17 42-2 5-7 14-14 14-11-1-20-23-27-30-16-16-42-14-61-7-7 3-18 7-20 15-4 9 7 26 9 37 3 12-6 37 1 46 6 8 25 5 34 3 29-4 60-2 89-4l56-2c9-1 19 0 24-8m712-92c-12 2-7 15 3 15 17-1 14-16-3-15m-45 14c-8 3-4 13 4 10 7-3 4-13-4-10m12 12c-5 1-10 5-15 8-9 4-25 3-31 12-6 11 15 30 26 27 7-2 9-10 16-13 5-2 11 0 14-6 3-7 1-31-10-28m-696 186l-21-3c6-12 30-12 42-14 41-6 82-16 123-20 13-1 31-13 44-4 19 15-8 45-5 61 2 9 12 13 16 21 8 14 14 33 24 46 9 12 25 18 36 29 4 5 21 34 29 27 5-4-6-18-5-25 4 3 11 9 17 9 4-1 11-8 8-12-2-3-8-1-10-3-8-4-16-12-17-20 14 2 16 15 31 12 5 0 15-5 10-12-5-6-12 1-17-7l24-8c-2-9-6-19-6-28 0-6 3-11 4-17 0-7-3-16 0-22s11-8 14-14c3-4-1-9-1-14 1-13 14-6 21-4l-4-17c7 4 21 14 22 22 1 11-11 12-1 23 9 10 22 0 17-12-3-8-9-14-10-22l23 1c0-23 6-46 7-69 0-11-3-20-4-30-1-12 5-26-9-34-4-2-10-3-14-3-38-7-42 24-68 42-10 6-21 6-32 6-19-1-39 2-57 5-8 1-18 2-24 7-13 13-6 38-27 43-16 4-32 2-48 4-74 7-148-5-221 6-11 1-17-5-26-8-13-4-38-5-49 6-4 4-3 11 1 15 7 10 23 18 32 27 11 10 23 24 36 30 20 9 55 0 74-8 8-4 16-4 21-12m651-110c2 13 15 22 25 29 5 3 12 5 16 1 8-8-14-10-13-17 1-6 16-5 20-11-9-6-20-7-28-12-12-8-18-20-28-29-4-5-12-10-19-8-13 5-2 17 2 23 10 14 3 24 25 24m-90 211c19-2 36-23 49-36 5-6 11-7 11-16l-36 15c-4-17 7-31 8-47 1-18-11-42-7-59 2-7 14-4 16-13 2-10-9-19-7-29 4-18 33-6 30-27-2-12-9-28-20-34-13-7-43-2-47 14-4 13 1 30 3 43 6 34 18 67 21 101 2 30-19 58-21 88m-130-244c-13 3-10 41-10 52 0 18-6 38-4 56 2 10 7 20 10 31 7 23 13 46 18 70l10 47c1 4 1 14 7 13s5-11 5-14c0-16 1-32-4-47-17-59-25-116-20-177 1-9 11-14 11-22 0-7-18-11-23-9m305 3l1 1-1-1m-3 1l2 1-2-1m4 4l2 1-2-1m-36 12h2l2-3c-3-1-4 0-4 3m3-1l1 1-1-1m-845 24c-11 2-34 1-43 8-8 8 2 26 9 30s18 1 26 0c18-3 39-5 57-11 4-1 15-3 16-8 2-7-13-5-16-5-18-2-31-17-49-14m532 11c9 1 10 34 10 42 0 3 0 12-5 12s-8-7-10-11c-4-8-16-43 5-43m220 5c-7 1-6 12 1 11 6-2 6-13-1-11m33 8c-23 8-13 39 9 31 24-9 16-39-9-31m-32 33c-8 2-2 12 5 10 7-3 1-12-5-10m-259 27v5h2l-2-5m3 0l1 1-1-1m55 13c1 30 9 57 15 87 1 5 5 27 15 24 7-3-1-22-3-27l-14-51c-2-11-4-25-13-33m-2116 280c53 0 110-7 162-16 25-4 55-8 76-21 6-3 13-9 13-16-1-15-20-39 6-45 13-3 27 8 37 15 28 18 55 36 78 60-1 13-1 25-16 29-18 4-37-3-55 0-55 10-109 29-164 37 8 26 8 59 9 86 3 57 0 112-2 168-1 13-2 27 2 39s15 24 8 37c-10 18-30 8-42-1l-87-58c-12-9-31-18-35-33-9-26 22-21 35-29 7-5 9-16 10-24 12-59 1-124-6-183-18 2-47-3-63 6-8 4-13 17-18 25-14 20-29 40-42 61-4 8-10 16-10 26 0 14 22 52-11 50-15-1-28-13-40-21l-77-52c-12-7-29-19-25-35 6-19 25-12 39-14 9-2 17-10 22-16 49-62 90-131 133-196l39-58c7-10 16-22 19-34 5-18-22-41 1-55 13-8 30 4 41 11 31 21 63 42 93 64 12 8 24 21 16 35-10 18-38 5-52 19-15 15-25 35-37 52-19 28-43 57-57 87m2262-268c-12 3-9 18-4 27 1 3 6 9 11 7 9-4 9-40-7-34m-216 8c-8 4 2 32 13 25 9-6-2-31-13-25m-402 13c6 27 44 23 62 13 8-5 17-9 18-19-28 0-54-2-80 6m436-6l1 1-1-1m-3 2l1 1-1-1m-38 16c-6 1-2 16 4 15 7-1 2-16-4-15m-197 28c-6-3-31 3-32-4-2-9 24-13 28-21-17-5-45 3-62 6-16 3-34-5-51-3-12 1-25 4-36 9-4 2-10 4-9 9 1 16 31 19 42 22 11 4 19 12 30 15 24 5 81-8 90-33m380-20c-21 10-12 47-9 64 1 8 0 26 13 21 25-9 9-42 6-58l-1-17c0-5-3-12-9-10m1490 248c83 17 163 60 238 99 13 7 27 11 42 13 9 1 20-2 27 6 15 16-4 30-17 39-29 20-60 38-90 57-13 7-28 19-43 18-26-3-10-29-12-44-2-7-9-13-15-17-24-17-52-28-80-39-30-12-61-25-93-32-3 19-21 40-20 59 0 9 11 22 16 29 16 24 29 55 49 75 14 13 44 1 51 23 5 16-11 26-23 34l-93 58c-11 7-27 17-40 8-17-12-1-29 2-43 2-9-2-19-7-27-37-70-86-135-127-204l-36-58c-7-12-15-25-27-31-9-5-22-2-32-4v1c7 4 11 12 14 19 8 17 35 65-2 68-11 1-20-6-29-12-15-10-30-22-47-28-39-16-86-1-116 27-23 22-31 56-9 82 19 23 47 23 75 20 48-4 98-17 146-13 38 4 75 22 97 55 7 11 10 32 19 41-1 24 9 46 2 70-23 91-104 143-191 164-45 10-89 10-132-6-22-9-43-22-49-45-6-24 10-44 34-43 13 1 24 10 35 17 16 10 31 19 49 24 46 13 101-6 134-38 23-24 34-54 18-84-24-46-89-29-129-21-72 14-165 19-204-58-7-14-10-29-13-44-5-33 9-58 14-88 4 0 8-13 11-17 12-16 25-32 41-44 44-31 97-52 151-56 24-2 48-5 72 2-7-22 8-32 25-43 28-16 55-34 82-51 12-7 31-23 46-13 23 15-6 40 1 59 13 32 36 61 54 90 11 17 21 40 36 54 3-20 13-40 20-60 19-52 40-106 44-162 0-11-1-24-12-29-14-6-44 2-37-26 3-11 16-18 25-23 23-15 48-36 75-45 13-4 30-3 34 13 5 19-17 42-22 60-14 54-22 110-32 164m-1465-234c-8 4-1 32 9 27 6-3 1-34-9-27m-333 29c-14-4-26 3-34 16-2 4-6 11-3 15 4 4 11 1 15-1 9-7 20-18 22-30m15 10c-8 3-3 18 5 17 10-2 4-19-5-17m300 50c8-3 11-8 12-16-9 2-12 7-12 16m-265 59c-5 3-2 14 4 10s3-15-4-10m-18 46c-6 2-19 12-15 20 4 9 13-7 14-10l1-10m-1326 418c17-51 40-101 60-151 9-22 21-44 25-67 3-21-27-30-23-50l-2 1c1-5 3-12 8-15 8-5 22-2 30 0 24 7 47 17 70 27 11 5 30 14 30 28-1 25-29 17-44 23-12 5-20 19-25 30-33 83-65 166-100 248l-28 70c-4 11-8 24-17 33-13 14-44 0-56-10-13-9-16-24-19-38-5-25-10-50-17-75-26-106-49-213-79-318-26 49-42 104-64 156l-31 78c-6 13-14 28-12 43 1 17 24 24 24 43 0 18-18 18-32 15-27-7-58-19-82-33-10-5-22-12-22-24 0-25 30-15 44-21 11-4 20-20 24-31l77-190c12-31 27-61 36-92 5-14 7-28-3-40-7-9-17-14-21-24-5-13 5-26 18-27 21 0 42 12 61 20 21 8 56 16 71 32 7 8 10 18 14 28 8 22 14 44 20 67 18 62 31 125 46 188 6 24 9 52 19 76m1156-364l-1 6c-6 16-21-9 1-6m1598-1h1-1m3 1l-1 1v1l1 2h1l2-2v-1l-3-1m1 1l-1 1 1-1m2 3h1-1m-1572 20l-16 22-8 20c-6-11-6-19-2-30-17-1-7-18 4-20 9-1 0 10 5 12 4 2 12-4 17-4m1206 76c13-2 29 0 31 16 3 19-20 26-20 45 0 17 8 35 12 51l22 77 41 141c6 21 10 43 19 63 3 8 8 15 15 19 13 7 37 9 32 30-4 15-24 19-37 23l-77 22c-15 4-29 10-44 11-13 1-26-9-24-22 1-15 20-22 21-38 1-15-7-31-11-45l-28-99-34-117c-7-24-12-50-22-73-3-7-7-15-13-19-13-8-39-9-32-31 4-15 22-18 35-22 36-11 76-27 114-32m-2042 52c22-4 61 6 70 29 7 16 8 34 11 51l14 85 26 165c4 22 9 44 10 66 2 23 0 53 8 76 3 11 16 17 19 29 2 11-4 21-14 23-16 4-32-3-47-7l-84-21c-12-3-33-8-33-24-1-22 26-16 34-30 4-6 3-15 3-22 0-20-2-39-4-58-1-6 1-19-3-25-5-7-29-9-37-11l-101-25c-10-2-34-13-41-5-15 15-27 39-36 58-4 7-9 16-9 24 1 19 36 33 20 53-7 8-22 7-30 5-22-3-44-9-64-15-9-3-20-5-27-12-6-7-5-18 1-25 9-10 23-12 32-21 14-13 24-34 34-50 52-82 111-158 171-235l47-56c8-9 17-20 30-22m1705 242c36-11 77-10 112-26 16-7 25-32 44-30 24 3 29 51 29 70 0 8 1 17-7 23-15 12-37-8-54-8-37 0-75 17-112 22 2 27 11 56 17 83 5 21 7 47 16 68 8 17 37 16 40 34 3 19-11 26-26 29-36 9-72 16-107 23-13 3-33 9-44-2-18-18 8-32 15-46 6-10 2-22 0-33-19-94-39-189-60-283-4-16-5-35-16-48-10-12-46-13-33-38 4-10 14-13 23-15l56-12c58-14 116-24 174-37 26-6 63-20 90-15 9 2 14 10 19 17 9 17 24 51 15 71-12 24-49-8-62-15-33-19-74-9-109 0-13 3-31 6-40 16-10 12-5 31-2 44 6 36 19 72 22 108m-1443-187c40-2 84 12 123 18 13 2 34 3 40 17 9 22-16 26-28 35-8 7-11 16-13 25-18 75-24 154-37 230l-12 78c-2 11-5 25 1 35 8 11 28 14 41 16 35 6 73 14 105-6 19-12 47-46 71-28 23 17-7 63-17 81-4 7-9 16-18 19-24 7-59-6-82-10l-183-28c-19-4-39-5-57-10-10-2-19-6-22-15-8-27 30-28 38-48 6-15 7-32 9-47l15-93 23-142c3-21 11-45 7-66-3-16-19-20-24-35-4-14 7-26 20-26m-286 39l-79 104-33 47 142 35c-1-62-20-125-28-186h-2m638 5c37-1 75 4 112 6 14 0 34-2 43 11 15 20-12 30-23 40-5 6-8 14-9 22-11 75-5 153-12 228-3 26-1 52-5 78-1 12-4 33 5 43 10 11 32 12 45 13 37 1 72 5 103-19 16-13 42-50 66-33 23 16-1 63-9 82-4 9-8 18-18 21-26 7-58-1-84-2l-178-9c-20-1-41-1-61-4-9-1-18-3-23-11-11-21 12-27 24-38 6-6 9-14 10-22 5-28 4-58 5-87l8-150c1-34 11-75 3-107-4-17-23-19-28-35-6-18 11-27 26-27m480 255c1 39 5 78 7 116 1 17 1 40 13 53 10 11 23 12 36 13 31 2 64 1 94-6 35-9 45-40 72-59 11-8 29-9 37 3 13 19-3 58-9 78-2 8-6 16-14 20-24 12-62 6-88 8-65 4-132 10-197 10l-60 3c-9 0-19 1-27-6-20-19 10-32 20-45 4-6 5-13 6-20 0-38-4-76-6-114-1-39-2-79-5-118-3-28-3-56-5-84-1-12-1-23-7-34-6-12-19-13-27-22-7-9-6-20 3-27 20-15 58-8 81-10 66-7 134-8 200-11 23-1 60-11 80 2 17 10 20 55 17 73-3 17-21 23-35 15-15-8-25-23-40-31-30-15-68-11-99-8-17 1-44 1-53 19-7 13 0 36 0 50l2 52c0 6-1 20 3 25s24 2 31 1c28-4 59 2 86-6 17-5 30-31 50-22 20 10 18 54 15 73-1 9-3 18-13 22-18 7-36-15-53-18-36-5-78 5-115 5z" fill="#448f9b"/>
 </svg>
